<svg width="32" height="32" viewBox="0 0 40 40" fill="none" xmlns="http://www.w3.org/2000/svg">
  <rect width="40" height="40" rx="11" fill="#7B3348"/>
  <path d="M20 6C14 6 10 10 10 15.5C10 22 15 27.5 20 32C25 27.5 30 22 30 15.5C30 10 26 6 20 6Z" fill="white" opacity="0.15"/>
  <line x1="20" y1="28" x2="20" y2="16" stroke="#4CAF72" stroke-width="2" stroke-linecap="round"/>
  <path d="M20 22C17 20 14 21 14 24C17 24 20 22 20 22Z" fill="#4CAF72"/>
  <path d="M20 19C23 17 26 18 26 21C23 21 20 19 20 19Z" fill="#6FCF97"/>
  <circle cx="20" cy="15.5" r="1.5" fill="#4CAF72"/>
</svg>
